<!DOCTYPE svg PUBLIC "-//W3C//DTD SVG 1.1//EN" "http://www.w3.org/Graphics/SVG/1.1/DTD/svg11.dtd">

<!-- Uploaded to: SVG Repo, www.svgrepo.com, Transformed by: SVG Repo Mixer Tools -->
<svg fill="#000000" width="64px" height="64px" viewBox="0 0 32 32" version="1.1" xmlns="http://www.w3.org/2000/svg">

<g id="SVGRepo_bgCarrier" stroke-width="0"/>

<g id="SVGRepo_tracerCarrier" stroke-linecap="round" stroke-linejoin="round"/>

<g id="SVGRepo_iconCarrier"> <title>envelope-open-text</title> <path d="M31.224 11.872c-0.016-0.177-0.070-0.339-0.154-0.481l0.003 0.005c-0.019-0.049-0.037-0.090-0.058-0.129l0.003 0.006c-0.021-0.029-0.053-0.044-0.076-0.071-0.054-0.062-0.114-0.118-0.178-0.167l-0.003-0.002c-0.183-0.143-0.411-0.238-0.658-0.264l-0.006-0c-0.034-0.003-0.063-0.020-0.098-0.020-0.050 0.007-0.093 0.016-0.134 0.027l0.008-0.002c-0.178 0.016-0.341 0.071-0.483 0.155l0.005-0.003c-0.049 0.019-0.090 0.037-0.129 0.058l0.006-0.003-1.023 0.731v-7.713c-0.002-1.794-1.456-3.248-3.25-3.25h-18c-1.794 0.002-3.248 1.456-3.25 3.25v7.714l-1.023-0.731c-0.033-0.017-0.073-0.036-0.114-0.052l-0.008-0.003c-0.138-0.082-0.301-0.137-0.476-0.152l-0.004-0c-0.033-0.009-0.075-0.018-0.117-0.024l-0.006-0.001c-0.034 0-0.062 0.017-0.095 0.019-0.096 0.009-0.184 0.027-0.267 0.055l0.009-0.002c-0.081 0.022-0.15 0.049-0.217 0.082l0.007-0.003c-0.075 0.041-0.139 0.085-0.198 0.134l0.002-0.002c-0.068 0.052-0.128 0.108-0.182 0.17l-0.001 0.001c-0.023 0.027-0.054 0.041-0.075 0.070-0.017 0.032-0.036 0.072-0.052 0.114l-0.003 0.008c-0.081 0.137-0.136 0.298-0.152 0.471l-0 0.004c-0.010 0.035-0.019 0.079-0.025 0.123l-0.001 0.006v16c0.002 1.794 1.456 3.248 3.25 3.25h24c1.794-0.001 3.249-1.456 3.25-3.25v-16c-0.007-0.051-0.016-0.094-0.028-0.136l0.002 0.008zM6.25 4c0.001-0.414 0.336-0.749 0.75-0.75h18c0.414 0 0.75 0.336 0.75 0.75v9.499l-1.799 1.285c0.182-0.209 0.294-0.483 0.299-0.783v-0.001c-0-0.69-0.56-1.25-1.25-1.25h-14c-0.69 0-1.25 0.56-1.25 1.25v0c0.005 0.301 0.117 0.575 0.3 0.786l-0.001-0.002-1.799-1.285zM16 20.463l-1.699-1.213h3.398zM21.199 16.75h-10.398l-2.218-1.584c0.123 0.050 0.266 0.080 0.415 0.084l0.002 0h14c0.151-0.004 0.294-0.034 0.425-0.087l-0.008 0.003zM28 28.75h-24c-0.414-0-0.75-0.336-0.75-0.75v-13.571l12.023 8.588c0.031 0.018 0.069 0.037 0.108 0.054l0.008 0.003c0.031 0.018 0.068 0.037 0.107 0.054l0.008 0.003c0.145 0.070 0.315 0.113 0.494 0.118l0.002 0h0.002c0.181-0.005 0.351-0.048 0.503-0.121l-0.008 0.003c0.046-0.020 0.084-0.039 0.12-0.060l-0.006 0.003c0.047-0.020 0.085-0.040 0.121-0.061l-0.006 0.003 12.023-8.588v13.571c-0 0.414-0.336 0.75-0.75 0.75v0zM9 7.25h14c0.69 0 1.25-0.56 1.25-1.25s-0.56-1.25-1.25-1.25v0h-14c-0.69 0-1.25 0.56-1.25 1.25s0.56 1.25 1.25 1.25v0zM9 11.25h14c0.69 0 1.25-0.56 1.25-1.25s-0.56-1.25-1.25-1.25v0h-14c-0.69 0-1.25 0.56-1.25 1.25s0.56 1.25 1.25 1.25v0z"/> </g>

</svg>